<svg width="26" height="26" viewBox="0 0 26 26" fill="none" xmlns="http://www.w3.org/2000/svg">
<g id="Frame">
<path id="Vector" d="M23.8083 16.4531C23.8883 16.5921 23.9402 16.7455 23.9609 16.9045C23.9817 17.0635 23.9709 17.2251 23.9292 17.3799C23.8875 17.5348 23.8157 17.6799 23.718 17.807C23.6202 17.9342 23.4983 18.0408 23.3594 18.1208C23.2204 18.2008 23.067 18.2527 22.908 18.2734C22.749 18.2942 22.5874 18.2834 22.4326 18.2417C22.2777 18.2 22.1326 18.1283 22.0055 18.0305C21.8784 17.9327 21.7717 17.8109 21.6917 17.6719L19.9794 14.6758C19.0239 15.2769 17.9937 15.7501 16.9152 16.0835L17.4525 19.2969C17.5053 19.6157 17.4294 19.9424 17.2415 20.2052C17.0535 20.468 16.7688 20.6455 16.4501 20.6985C16.383 20.7103 16.315 20.716 16.2469 20.7157C15.9591 20.7154 15.6807 20.6133 15.461 20.4274C15.2413 20.2415 15.0944 19.9839 15.0465 19.7001L14.5234 16.572C13.5089 16.6844 12.485 16.6844 11.4705 16.572L10.9525 19.7031C10.9045 19.9873 10.7573 20.2452 10.5372 20.4311C10.317 20.617 10.0381 20.719 9.75 20.7188C9.68191 20.7191 9.61393 20.7133 9.54687 20.7015C9.38901 20.6749 9.23794 20.6175 9.10227 20.5325C8.96661 20.4475 8.84902 20.3367 8.75621 20.2062C8.66341 20.0758 8.59721 19.9283 8.5614 19.7723C8.52558 19.6163 8.52086 19.4547 8.5475 19.2969L9.08476 16.0753C8.00626 15.742 6.97611 15.2688 6.02062 14.6677L4.30828 17.6719C4.22825 17.8109 4.12164 17.9327 3.99452 18.0305C3.86741 18.1283 3.72228 18.2 3.56742 18.2417C3.41256 18.2834 3.25101 18.2942 3.09199 18.2734C2.93297 18.2527 2.7796 18.2008 2.64062 18.1208C2.50164 18.0408 2.37979 17.9342 2.28202 17.807C2.18425 17.6799 2.11247 17.5348 2.07078 17.3799C2.0291 17.2251 2.01832 17.0635 2.03907 16.9045C2.05982 16.7455 2.11169 16.5921 2.19171 16.4531L4.0625 13.1879C3.42843 12.6153 2.84058 11.9935 2.30445 11.3283C2.11518 11.0759 2.03118 10.7599 2.07013 10.4468C2.10907 10.1337 2.26792 9.84787 2.51326 9.64949C2.75861 9.45111 3.07132 9.35561 3.38564 9.38307C3.69995 9.41053 3.99137 9.55882 4.19859 9.79674C5.82765 11.8138 8.6775 14.2188 13 14.2188C17.3225 14.2188 20.1723 11.8138 21.8014 9.79674C22.0053 9.54769 22.2994 9.3894 22.6195 9.3564C22.9397 9.32341 23.2599 9.41839 23.5103 9.62062C23.7606 9.82286 23.9209 10.1159 23.956 10.4359C23.991 10.7558 23.8982 11.0766 23.6976 11.3283C23.1608 11.9936 22.5723 12.6154 21.9375 13.1879L23.8083 16.4531Z" fill="white"/>
</g>
</svg>
